<svg width="20" height="20" viewBox="0 0 20 20" fill="none" xmlns="http://www.w3.org/2000/svg">
<path d="M6.27983 0.500429C6.90983 0.519589 7.51983 0.629589 8.11083 0.830589H8.16983C8.20983 0.849589 8.23983 0.870589 8.25983 0.889589C8.48083 0.960589 8.68983 1.04059 8.88983 1.15059L9.26983 1.32059C9.41983 1.40059 9.59983 1.54959 9.69983 1.61059C9.79983 1.66959 9.90983 1.73059 9.99983 1.79959C11.1108 0.950589 12.4598 0.490589 13.8498 0.500429C14.4808 0.500429 15.1108 0.589589 15.7098 0.790589C19.4008 1.99059 20.7308 6.04059 19.6198 9.58059C18.9898 11.3896 17.9598 13.0406 16.6108 14.3896C14.6798 16.2596 12.5608 17.9196 10.2798 19.3496L10.0298 19.5006L9.76983 19.3396C7.48083 17.9196 5.34983 16.2596 3.40083 14.3796C2.06083 13.0306 1.02983 11.3896 0.389833 9.58059C-0.740167 6.04059 0.589834 1.99059 4.32083 0.769589C4.61083 0.669589 4.90983 0.599589 5.20983 0.560589H5.32983C5.61083 0.519589 5.88983 0.500429 6.16983 0.500429H6.27983ZM15.1898 3.66059C14.7798 3.51959 14.3298 3.74059 14.1798 4.16059C14.0398 4.58059 14.2598 5.04059 14.6798 5.18959C15.3208 5.42959 15.7498 6.06059 15.7498 6.75959V6.79059C15.7308 7.01959 15.7998 7.24059 15.9398 7.41059C16.0798 7.58059 16.2898 7.67959 16.5098 7.70059C16.9198 7.68959 17.2698 7.36059 17.2998 6.93959V6.82059C17.3298 5.41959 16.4808 4.15059 15.1898 3.66059Z" fill="#FF4444"/>
</svg>
