<svg width="19" height="18" viewBox="0 0 19 18" fill="none" xmlns="http://www.w3.org/2000/svg">
<path fill-rule="evenodd" clip-rule="evenodd" d="M9.37369 0.959131C10.8629 0.0102623 12.8411 -0.251877 14.5501 0.300092C18.2675 1.50833 19.4215 5.59271 18.3893 8.84268C16.7967 13.947 9.99464 17.7545 9.70614 17.9142C9.60357 17.9714 9.49 18 9.37644 18C9.26287 18 9.15022 17.9723 9.04765 17.916C8.76099 17.7582 2.00842 14.007 0.362637 8.8436C0.361721 8.8436 0.361721 8.84268 0.361721 8.84268C-0.671358 5.59179 0.47895 1.50648 4.19272 0.300092C5.9365 -0.268491 7.83689 -0.0183514 9.37369 0.959131ZM4.61402 1.61817C1.60911 2.59473 0.854449 5.85208 1.67047 8.42086C2.95449 12.4471 8.02739 15.7026 9.37552 16.5084C10.7282 15.6943 15.8378 12.4028 17.0806 8.42455C17.8966 5.853 17.1392 2.59565 14.1297 1.61817C12.6717 1.1465 10.9709 1.43357 9.79681 2.34921C9.55136 2.53935 9.21067 2.54304 8.96339 2.35474C7.71966 1.41234 6.09495 1.13635 4.61402 1.61817ZM13.2505 3.4512C14.4988 3.85826 15.3734 4.97235 15.4806 6.2895C15.5108 6.67071 15.2296 7.00485 14.8514 7.03531C14.8322 7.03715 14.8138 7.03807 14.7946 7.03807C14.4402 7.03807 14.1398 6.76394 14.1105 6.40211C14.05 5.64339 13.5463 5.00281 12.8292 4.76928C12.4674 4.65113 12.2696 4.2607 12.3859 3.89795C12.5041 3.53428 12.8878 3.33675 13.2505 3.4512Z" fill="#6B7580"/>
</svg>
